STARTFONT 2.1
FONT -URW-ITC Avant Garde-Demi-R-Normal-Sans-8-80-72-72-P-45-ISO8859-1
SIZE 8 72 72
FONTBOUNDINGBOX 11 11 -1 -3

STARTPROPERTIES 22
FONTNAME_REGISTRY "-"
FOUNDRY "URW"
FAMILY_NAME "ITC Avant Garde"
WEIGHT_NAME "Demi"
SLANT "R"
SETWIDTH_NAME "Normal"
ADD_STYLE_NAME "Sans"
PIXEL_SIZE 8
POINT_SIZE 80
RESOLUTION_X 72
RESOLUTION_Y 72
SPACING "P"
CHARSET_REGISTRY "ISO8859"
CHARSET_ENCODING "1"
FULL_NAME "AvantGarde-Demi"
AVERAGE_WIDTH 45
WEIGHT 10
X_HEIGHT 4
QUAD_WIDTH 5
DEFAULT_CHAR 32
FONT_DESCENT 3
FONT_ASCENT 8
ENDPROPERTIES

CHARS 190

STARTCHAR space
ENCODING 32
SWIDTH 280 0
DWIDTH 2 0
BBX 1 1 0 0
BITMAP
00
ENDCHAR

STARTCHAR exclam
ENCODING 33
SWIDTH 280 0
DWIDTH 2 0
BBX 1 6 1 0
BITMAP
80
80
80
80
00
80
ENDCHAR

STARTCHAR quotedbl
ENCODING 34
SWIDTH 360 0
DWIDTH 3 0
BBX 2 2 0 4
BITMAP
C0
C0
ENDCHAR

STARTCHAR numbersign
ENCODING 35
SWIDTH 560 0
DWIDTH 5 0
BBX 4 6 0 0
BITMAP
50
50
F0
F0
A0
A0
ENDCHAR

STARTCHAR dollar
ENCODING 36
SWIDTH 560 0
DWIDTH 4 0
BBX 3 7 1 -1
BITMAP
40
60
80
40
A0
40
40
ENDCHAR

STARTCHAR percent
ENCODING 37
SWIDTH 860 0
DWIDTH 7 0
BBX 7 6 0 0
BITMAP
48
A8
50
14
2A
24
ENDCHAR

STARTCHAR ampersand
ENCODING 38
SWIDTH 680 0
DWIDTH 5 0
BBX 5 6 0 0
BITMAP
20
50
28
70
90
68
ENDCHAR

STARTCHAR quoteright
ENCODING 39
SWIDTH 280 0
DWIDTH 2 0
BBX 1 3 1 3
BITMAP
80
80
80
ENDCHAR

STARTCHAR parenleft
ENCODING 40
SWIDTH 380 0
DWIDTH 3 0
BBX 2 8 1 -2
BITMAP
40
40
80
80
80
80
40
40
ENDCHAR

STARTCHAR parenright
ENCODING 41
SWIDTH 380 0
DWIDTH 3 0
BBX 2 8 0 -2
BITMAP
80
80
40
40
40
40
80
80
ENDCHAR

STARTCHAR asterisk
ENCODING 42
SWIDTH 440 0
DWIDTH 4 0
BBX 2 2 1 4
BITMAP
C0
C0
ENDCHAR

STARTCHAR plus
ENCODING 43
SWIDTH 600 0
DWIDTH 5 0
BBX 3 3 1 1
BITMAP
40
E0
40
ENDCHAR

STARTCHAR comma
ENCODING 44
SWIDTH 280 0
DWIDTH 2 0
BBX 1 3 1 -2
BITMAP
80
80
80
ENDCHAR

STARTCHAR minus
ENCODING 45
SWIDTH 600 0
DWIDTH 5 0
BBX 4 1 0 2
BITMAP
F0
ENDCHAR

STARTCHAR period
ENCODING 46
SWIDTH 280 0
DWIDTH 2 0
BBX 1 1 1 0
BITMAP
80
ENDCHAR

STARTCHAR slash
ENCODING 47
SWIDTH 460 0
DWIDTH 4 0
BBX 3 8 0 -2
BITMAP
20
20
20
40
40
40
80
80
ENDCHAR

STARTCHAR zero
ENCODING 48
SWIDTH 560 0
DWIDTH 4 0
BBX 4 6 0 0
BITMAP
60
90
90
90
90
60
ENDCHAR

STARTCHAR one
ENCODING 49
SWIDTH 560 0
DWIDTH 4 0
BBX 2 6 1 0
BITMAP
C0
40
40
40
40
40
ENDCHAR

STARTCHAR two
ENCODING 50
SWIDTH 560 0
DWIDTH 4 0
BBX 4 6 0 0
BITMAP
60
90
10
20
40
F0
ENDCHAR

STARTCHAR three
ENCODING 51
SWIDTH 560 0
DWIDTH 4 0
BBX 4 6 0 0
BITMAP
E0
10
20
10
90
60
ENDCHAR

STARTCHAR four
ENCODING 52
SWIDTH 560 0
DWIDTH 4 0
BBX 5 6 0 0
BITMAP
10
30
50
90
F8
10
ENDCHAR

STARTCHAR five
ENCODING 53
SWIDTH 560 0
DWIDTH 4 0
BBX 4 6 0 0
BITMAP
60
80
E0
10
90
60
ENDCHAR

STARTCHAR six
ENCODING 54
SWIDTH 560 0
DWIDTH 4 0
BBX 4 6 0 0
BITMAP
20
40
E0
90
90
60
ENDCHAR

STARTCHAR seven
ENCODING 55
SWIDTH 560 0
DWIDTH 4 0
BBX 3 6 1 0
BITMAP
E0
20
40
40
40
80
ENDCHAR

STARTCHAR eight
ENCODING 56
SWIDTH 560 0
DWIDTH 4 0
BBX 4 6 0 0
BITMAP
60
90
60
90
90
60
ENDCHAR

STARTCHAR nine
ENCODING 57
SWIDTH 560 0
DWIDTH 4 0
BBX 4 6 0 0
BITMAP
60
90
90
70
20
40
ENDCHAR

STARTCHAR colon
ENCODING 58
SWIDTH 280 0
DWIDTH 2 0
BBX 1 4 1 0
BITMAP
80
00
00
80
ENDCHAR

STARTCHAR semicolon
ENCODING 59
SWIDTH 280 0
DWIDTH 2 0
BBX 1 6 1 -2
BITMAP
80
00
00
80
80
80
ENDCHAR

STARTCHAR less
ENCODING 60
SWIDTH 600 0
DWIDTH 5 0
BBX 4 4 0 0
BITMAP
30
C0
C0
30
ENDCHAR

STARTCHAR equal
ENCODING 61
SWIDTH 600 0
DWIDTH 5 0
BBX 4 2 0 2
BITMAP
F0
F0
ENDCHAR

STARTCHAR greater
ENCODING 62
SWIDTH 600 0
DWIDTH 5 0
BBX 4 4 0 0
BITMAP
C0
30
30
C0
ENDCHAR

STARTCHAR question
ENCODING 63
SWIDTH 560 0
DWIDTH 4 0
BBX 3 6 1 0
BITMAP
40
A0
20
40
00
40
ENDCHAR

STARTCHAR at
ENCODING 64
SWIDTH 740 0
DWIDTH 6 0
BBX 6 6 0 0
BITMAP
78
84
B4
BC
80
78
ENDCHAR

STARTCHAR A
ENCODING 65
SWIDTH 740 0
DWIDTH 6 0
BBX 6 6 0 0
BITMAP
20
30
50
78
48
84
ENDCHAR

STARTCHAR B
ENCODING 66
SWIDTH 580 0
DWIDTH 5 0
BBX 4 6 0 0
BITMAP
E0
90
E0
90
90
E0
ENDCHAR

STARTCHAR C
ENCODING 67
SWIDTH 780 0
DWIDTH 6 0
BBX 6 6 0 0
BITMAP
78
84
80
80
84
78
ENDCHAR

STARTCHAR D
ENCODING 68
SWIDTH 700 0
DWIDTH 6 0
BBX 5 6 0 0
BITMAP
F0
88
88
88
88
F0
ENDCHAR

STARTCHAR E
ENCODING 69
SWIDTH 520 0
DWIDTH 4 0
BBX 3 6 1 0
BITMAP
E0
80
E0
80
80
E0
ENDCHAR

STARTCHAR F
ENCODING 70
SWIDTH 480 0
DWIDTH 4 0
BBX 3 6 1 0
BITMAP
E0
80
E0
80
80
80
ENDCHAR

STARTCHAR G
ENCODING 71
SWIDTH 840 0
DWIDTH 7 0
BBX 5 6 1 0
BITMAP
70
88
80
B8
88
70
ENDCHAR

STARTCHAR H
ENCODING 72
SWIDTH 680 0
DWIDTH 5 0
BBX 4 6 1 0
BITMAP
90
90
F0
90
90
90
ENDCHAR

STARTCHAR I
ENCODING 73
SWIDTH 280 0
DWIDTH 2 0
BBX 1 6 1 0
BITMAP
80
80
80
80
80
80
ENDCHAR

STARTCHAR J
ENCODING 74
SWIDTH 480 0
DWIDTH 4 0
BBX 3 6 0 0
BITMAP
20
20
20
20
20
E0
ENDCHAR

STARTCHAR K
ENCODING 75
SWIDTH 620 0
DWIDTH 5 0
BBX 4 6 1 0
BITMAP
90
A0
C0
C0
A0
90
ENDCHAR

STARTCHAR L
ENCODING 76
SWIDTH 440 0
DWIDTH 4 0
BBX 3 6 1 0
BITMAP
80
80
80
80
80
E0
ENDCHAR

STARTCHAR M
ENCODING 77
SWIDTH 900 0
DWIDTH 7 0
BBX 6 6 1 0
BITMAP
CC
CC
CC
B4
B4
B4
ENDCHAR

STARTCHAR N
ENCODING 78
SWIDTH 740 0
DWIDTH 6 0
BBX 5 6 0 0
BITMAP
88
C8
A8
A8
98
88
ENDCHAR

STARTCHAR O
ENCODING 79
SWIDTH 840 0
DWIDTH 7 0
BBX 6 6 0 0
BITMAP
78
84
84
84
84
78
ENDCHAR

STARTCHAR P
ENCODING 80
SWIDTH 560 0
DWIDTH 4 0
BBX 4 6 0 0
BITMAP
E0
90
90
E0
80
80
ENDCHAR

STARTCHAR Q
ENCODING 81
SWIDTH 840 0
DWIDTH 7 0
BBX 6 6 0 0
BITMAP
78
84
84
F4
88
74
ENDCHAR

STARTCHAR R
ENCODING 82
SWIDTH 580 0
DWIDTH 5 0
BBX 4 6 1 0
BITMAP
E0
90
90
E0
A0
90
ENDCHAR

STARTCHAR S
ENCODING 83
SWIDTH 520 0
DWIDTH 4 0
BBX 4 6 0 0
BITMAP
70
80
60
10
90
60
ENDCHAR

STARTCHAR T
ENCODING 84
SWIDTH 420 0
DWIDTH 3 0
BBX 3 6 0 0
BITMAP
E0
40
40
40
40
40
ENDCHAR

STARTCHAR U
ENCODING 85
SWIDTH 640 0
DWIDTH 5 0
BBX 4 6 1 0
BITMAP
90
90
90
90
90
60
ENDCHAR

STARTCHAR V
ENCODING 86
SWIDTH 700 0
DWIDTH 6 0
BBX 6 6 0 0
BITMAP
8C
48
48
50
30
20
ENDCHAR

STARTCHAR W
ENCODING 87
SWIDTH 900 0
DWIDTH 7 0
BBX 7 6 0 0
BITMAP
92
92
6C
6C
6C
28
ENDCHAR

STARTCHAR X
ENCODING 88
SWIDTH 680 0
DWIDTH 5 0
BBX 5 6 0 0
BITMAP
88
50
20
20
50
88
ENDCHAR

STARTCHAR Y
ENCODING 89
SWIDTH 620 0
DWIDTH 5 0
BBX 5 6 0 0
BITMAP
88
50
50
20
20
20
ENDCHAR

STARTCHAR Z
ENCODING 90
SWIDTH 500 0
DWIDTH 4 0
BBX 4 6 0 0
BITMAP
F0
10
20
40
80
F0
ENDCHAR

STARTCHAR bracketleft
ENCODING 91
SWIDTH 320 0
DWIDTH 3 0
BBX 2 8 0 -2
BITMAP
40
C0
80
80
80
80
C0
40
ENDCHAR

STARTCHAR backslash
ENCODING 92
SWIDTH 640 0
DWIDTH 5 0
BBX 4 6 1 0
BITMAP
80
80
40
40
20
10
ENDCHAR

STARTCHAR bracketright
ENCODING 93
SWIDTH 320 0
DWIDTH 3 0
BBX 2 8 0 -2
BITMAP
80
C0
40
40
40
40
C0
80
ENDCHAR

STARTCHAR asciicircum
ENCODING 94
SWIDTH 600 0
DWIDTH 5 0
BBX 4 3 0 3
BITMAP
60
60
90
ENDCHAR

STARTCHAR underscore
ENCODING 95
SWIDTH 500 0
DWIDTH 4 0
BBX 4 1 0 -2
BITMAP
F0
ENDCHAR

STARTCHAR quoteleft
ENCODING 96
SWIDTH 280 0
DWIDTH 2 0
BBX 1 3 1 3
BITMAP
80
80
80
ENDCHAR

STARTCHAR a
ENCODING 97
SWIDTH 660 0
DWIDTH 5 0
BBX 5 4 0 0
BITMAP
78
88
88
78
ENDCHAR

STARTCHAR b
ENCODING 98
SWIDTH 660 0
DWIDTH 5 0
BBX 5 6 0 0
BITMAP
80
80
F0
88
88
F0
ENDCHAR

STARTCHAR c
ENCODING 99
SWIDTH 640 0
DWIDTH 5 0
BBX 4 4 1 0
BITMAP
60
90
90
60
ENDCHAR

STARTCHAR d
ENCODING 100
SWIDTH 660 0
DWIDTH 5 0
BBX 5 6 0 0
BITMAP
08
08
78
88
88
78
ENDCHAR

STARTCHAR e
ENCODING 101
SWIDTH 640 0
DWIDTH 5 0
BBX 4 4 1 0
BITMAP
60
F0
80
70
ENDCHAR

STARTCHAR f
ENCODING 102
SWIDTH 280 0
DWIDTH 2 0
BBX 3 6 0 0
BITMAP
60
60
E0
40
40
40
ENDCHAR

STARTCHAR g
ENCODING 103
SWIDTH 660 0
DWIDTH 5 0
BBX 5 6 0 -2
BITMAP
78
88
88
78
88
70
ENDCHAR

STARTCHAR h
ENCODING 104
SWIDTH 600 0
DWIDTH 5 0
BBX 4 6 0 0
BITMAP
80
80
F0
90
90
90
ENDCHAR

STARTCHAR i
ENCODING 105
SWIDTH 240 0
DWIDTH 2 0
BBX 1 6 0 0
BITMAP
80
00
80
80
80
80
ENDCHAR

STARTCHAR j
ENCODING 106
SWIDTH 260 0
DWIDTH 2 0
BBX 1 8 0 -2
BITMAP
80
00
80
80
80
80
80
80
ENDCHAR

STARTCHAR k
ENCODING 107
SWIDTH 580 0
DWIDTH 5 0
BBX 4 6 0 0
BITMAP
80
80
B0
C0
C0
B0
ENDCHAR

STARTCHAR l
ENCODING 108
SWIDTH 240 0
DWIDTH 2 0
BBX 1 6 0 0
BITMAP
80
80
80
80
80
80
ENDCHAR

STARTCHAR m
ENCODING 109
SWIDTH 940 0
DWIDTH 8 0
BBX 7 4 0 0
BITMAP
EE
92
92
92
ENDCHAR

STARTCHAR n
ENCODING 110
SWIDTH 600 0
DWIDTH 5 0
BBX 4 4 0 0
BITMAP
F0
90
90
90
ENDCHAR

STARTCHAR o
ENCODING 111
SWIDTH 640 0
DWIDTH 5 0
BBX 5 4 0 0
BITMAP
70
88
88
70
ENDCHAR

STARTCHAR p
ENCODING 112
SWIDTH 660 0
DWIDTH 5 0
BBX 5 6 0 -2
BITMAP
F0
88
88
F0
80
80
ENDCHAR

STARTCHAR q
ENCODING 113
SWIDTH 660 0
DWIDTH 5 0
BBX 5 6 0 -2
BITMAP
78
88
88
78
08
08
ENDCHAR

STARTCHAR r
ENCODING 114
SWIDTH 320 0
DWIDTH 3 0
BBX 2 4 0 0
BITMAP
C0
80
80
80
ENDCHAR

STARTCHAR s
ENCODING 115
SWIDTH 440 0
DWIDTH 4 0
BBX 3 4 0 0
BITMAP
E0
C0
20
E0
ENDCHAR

STARTCHAR t
ENCODING 116
SWIDTH 300 0
DWIDTH 2 0
BBX 3 6 0 0
BITMAP
40
40
E0
40
40
40
ENDCHAR

STARTCHAR u
ENCODING 117
SWIDTH 600 0
DWIDTH 5 0
BBX 4 4 0 0
BITMAP
90
90
90
F0
ENDCHAR

STARTCHAR v
ENCODING 118
SWIDTH 560 0
DWIDTH 4 0
BBX 4 4 0 0
BITMAP
90
50
60
20
ENDCHAR

STARTCHAR w
ENCODING 119
SWIDTH 800 0
DWIDTH 6 0
BBX 6 4 0 0
BITMAP
94
54
78
48
ENDCHAR

STARTCHAR x
ENCODING 120
SWIDTH 560 0
DWIDTH 4 0
BBX 5 4 0 0
BITMAP
90
60
20
D8
ENDCHAR

STARTCHAR y
ENCODING 121
SWIDTH 580 0
DWIDTH 5 0
BBX 4 6 0 -2
BITMAP
90
50
60
40
40
40
ENDCHAR

STARTCHAR z
ENCODING 122
SWIDTH 460 0
DWIDTH 4 0
BBX 3 4 0 0
BITMAP
E0
20
40
E0
ENDCHAR

STARTCHAR braceleft
ENCODING 123
SWIDTH 340 0
DWIDTH 3 0
BBX 2 8 0 -2
BITMAP
40
40
40
40
C0
40
40
40
ENDCHAR

STARTCHAR bar
ENCODING 124
SWIDTH 600 0
DWIDTH 5 0
BBX 1 6 2 0
BITMAP
80
80
80
80
80
80
ENDCHAR

STARTCHAR braceright
ENCODING 125
SWIDTH 340 0
DWIDTH 3 0
BBX 2 8 0 -2
BITMAP
80
80
80
80
C0
80
80
80
ENDCHAR

STARTCHAR asciitilde
ENCODING 126
SWIDTH 600 0
DWIDTH 5 0
BBX 4 2 0 2
BITMAP
D0
B0
ENDCHAR

STARTCHAR exclamdown
ENCODING 161
SWIDTH 280 0
DWIDTH 2 0
BBX 1 6 1 -2
BITMAP
80
80
80
80
80
80
ENDCHAR

STARTCHAR cent
ENCODING 162
SWIDTH 560 0
DWIDTH 4 0
BBX 3 5 1 1
BITMAP
40
E0
80
E0
40
ENDCHAR

STARTCHAR sterling
ENCODING 163
SWIDTH 560 0
DWIDTH 4 0
BBX 4 6 0 0
BITMAP
60
90
80
E0
40
F0
ENDCHAR

STARTCHAR currency
ENCODING 164
SWIDTH 560 0
DWIDTH 5 0
BBX 4 3 0 1
BITMAP
F0
90
F0
ENDCHAR

STARTCHAR yen
ENCODING 165
SWIDTH 560 0
DWIDTH 4 0
BBX 5 6 0 0
BITMAP
88
50
D8
50
F8
20
ENDCHAR

STARTCHAR brokenbar
ENCODING 166
SWIDTH 600 0
DWIDTH 5 0
BBX 1 6 2 0
BITMAP
80
80
80
00
80
80
ENDCHAR

STARTCHAR section
ENCODING 167
SWIDTH 560 0
DWIDTH 4 0
BBX 4 8 0 -2
BITMAP
60
90
40
A0
50
20
90
60
ENDCHAR

STARTCHAR dieresis
ENCODING 168
SWIDTH 500 0
DWIDTH 4 0
BBX 3 1 0 5
BITMAP
A0
ENDCHAR

STARTCHAR copyright
ENCODING 169
SWIDTH 740 0
DWIDTH 6 0
BBX 7 6 0 0
BITMAP
38
44
9A
A2
54
38
ENDCHAR

STARTCHAR ordfeminine
ENCODING 170
SWIDTH 360 0
DWIDTH 3 0
BBX 3 4 0 2
BITMAP
E0
A0
E0
E0
ENDCHAR

STARTCHAR guillemotleft
ENCODING 171
SWIDTH 460 0
DWIDTH 4 0
BBX 5 3 0 1
BITMAP
48
90
48
ENDCHAR

STARTCHAR logicalnot
ENCODING 172
SWIDTH 600 0
DWIDTH 5 0
BBX 4 2 0 1
BITMAP
F0
10
ENDCHAR

STARTCHAR hyphen
ENCODING 173
SWIDTH 420 0
DWIDTH 3 0
BBX 2 1 1 2
BITMAP
C0
ENDCHAR

STARTCHAR registered
ENCODING 174
SWIDTH 740 0
DWIDTH 6 0
BBX 7 6 0 0
BITMAP
38
54
AA
BA
6C
38
ENDCHAR

STARTCHAR macron
ENCODING 175
SWIDTH 420 0
DWIDTH 3 0
BBX 2 1 1 5
BITMAP
C0
ENDCHAR

STARTCHAR degree
ENCODING 176
SWIDTH 400 0
DWIDTH 5 0
BBX 3 3 1 3
BITMAP
E0
A0
E0
ENDCHAR

STARTCHAR plusminus
ENCODING 177
SWIDTH 600 0
DWIDTH 5 0
BBX 3 4 1 0
BITMAP
40
E0
40
E0
ENDCHAR

STARTCHAR twosuperior
ENCODING 178
SWIDTH 336 0
DWIDTH 3 0
BBX 3 4 -1 2
BITMAP
C0
20
40
E0
ENDCHAR

STARTCHAR threesuperior
ENCODING 179
SWIDTH 336 0
DWIDTH 3 0
BBX 3 4 -1 2
BITMAP
E0
40
20
C0
ENDCHAR

STARTCHAR acute
ENCODING 180
SWIDTH 420 0
DWIDTH 3 0
BBX 2 2 1 5
BITMAP
40
80
ENDCHAR

STARTCHAR mu
ENCODING 181
SWIDTH 576 0
DWIDTH 5 0
BBX 4 6 0 -2
BITMAP
90
90
90
F0
80
80
ENDCHAR

STARTCHAR paragraph
ENCODING 182
SWIDTH 600 0
DWIDTH 5 0
BBX 4 8 0 -2
BITMAP
F0
D0
D0
50
50
50
50
50
ENDCHAR

STARTCHAR periodcentered
ENCODING 183
SWIDTH 280 0
DWIDTH 3 0
BBX 1 1 1 2
BITMAP
80
ENDCHAR

STARTCHAR cedilla
ENCODING 184
SWIDTH 340 0
DWIDTH 3 0
BBX 2 2 0 -3
BITMAP
C0
C0
ENDCHAR

STARTCHAR onesuperior
ENCODING 185
SWIDTH 336 0
DWIDTH 3 0
BBX 2 4 -1 2
BITMAP
C0
40
40
40
ENDCHAR

STARTCHAR ordmasculine
ENCODING 186
SWIDTH 360 0
DWIDTH 3 0
BBX 2 4 0 2
BITMAP
C0
C0
C0
C0
ENDCHAR

STARTCHAR guillemotright
ENCODING 187
SWIDTH 460 0
DWIDTH 4 0
BBX 5 3 0 1
BITMAP
90
48
90
ENDCHAR

STARTCHAR onequarter
ENCODING 188
SWIDTH 840 0
DWIDTH 7 0
BBX 7 6 2 0
BITMAP
C8
48
54
5C
2E
24
ENDCHAR

STARTCHAR onehalf
ENCODING 189
SWIDTH 840 0
DWIDTH 7 0
BBX 7 6 2 0
BITMAP
C8
48
56
52
24
2E
ENDCHAR

STARTCHAR threequarters
ENCODING 190
SWIDTH 840 0
DWIDTH 7 0
BBX 7 6 2 0
BITMAP
E8
50
34
FC
2E
24
ENDCHAR

STARTCHAR questiondown
ENCODING 191
SWIDTH 560 0
DWIDTH 4 0
BBX 4 6 0 -2
BITMAP
20
00
60
80
90
60
ENDCHAR

STARTCHAR Agrave
ENCODING 192
SWIDTH 740 0
DWIDTH 6 0
BBX 6 8 0 0
BITMAP
20
10
20
30
50
78
48
8C
ENDCHAR

STARTCHAR Aacute
ENCODING 193
SWIDTH 740 0
DWIDTH 6 0
BBX 6 8 0 0
BITMAP
10
20
20
30
50
78
48
8C
ENDCHAR

STARTCHAR Acircumflex
ENCODING 194
SWIDTH 740 0
DWIDTH 6 0
BBX 6 8 0 0
BITMAP
20
50
20
30
50
78
48
8C
ENDCHAR

STARTCHAR Atilde
ENCODING 195
SWIDTH 740 0
DWIDTH 6 0
BBX 6 7 0 0
BITMAP
70
20
30
50
70
48
8C
ENDCHAR

STARTCHAR Adieresis
ENCODING 196
SWIDTH 740 0
DWIDTH 6 0
BBX 6 7 0 0
BITMAP
50
20
30
50
78
48
8C
ENDCHAR

STARTCHAR Aring
ENCODING 197
SWIDTH 740 0
DWIDTH 6 0
BBX 6 7 0 0
BITMAP
30
20
30
50
78
48
8C
ENDCHAR

STARTCHAR AE
ENCODING 198
SWIDTH 900 0
DWIDTH 7 0
BBX 7 6 0 0
BITMAP
0E
18
2E
38
48
8E
ENDCHAR

STARTCHAR Ccedilla
ENCODING 199
SWIDTH 780 0
DWIDTH 6 0
BBX 6 8 0 -2
BITMAP
78
84
80
80
84
78
10
30
ENDCHAR

STARTCHAR Egrave
ENCODING 200
SWIDTH 520 0
DWIDTH 4 0
BBX 3 8 1 0
BITMAP
80
40
E0
80
E0
80
80
E0
ENDCHAR

STARTCHAR Eacute
ENCODING 201
SWIDTH 520 0
DWIDTH 4 0
BBX 3 8 1 0
BITMAP
40
80
E0
80
E0
80
80
E0
ENDCHAR

STARTCHAR Ecircumflex
ENCODING 202
SWIDTH 520 0
DWIDTH 4 0
BBX 3 8 1 0
BITMAP
40
A0
E0
80
E0
80
80
E0
ENDCHAR

STARTCHAR Edieresis
ENCODING 203
SWIDTH 520 0
DWIDTH 4 0
BBX 3 7 1 0
BITMAP
A0
E0
80
E0
80
80
E0
ENDCHAR

STARTCHAR Igrave
ENCODING 204
SWIDTH 280 0
DWIDTH 2 0
BBX 2 8 1 0
BITMAP
80
40
80
80
80
80
80
80
ENDCHAR

STARTCHAR Iacute
ENCODING 205
SWIDTH 280 0
DWIDTH 2 0
BBX 2 8 1 0
BITMAP
40
80
80
80
80
80
80
80
ENDCHAR

STARTCHAR Icircumflex
ENCODING 206
SWIDTH 280 0
DWIDTH 2 0
BBX 3 8 2 0
BITMAP
40
A0
40
40
40
40
40
40
ENDCHAR

STARTCHAR Idieresis
ENCODING 207
SWIDTH 280 0
DWIDTH 2 0
BBX 3 7 2 0
BITMAP
A0
40
40
40
40
40
40
ENDCHAR

STARTCHAR Eth
ENCODING 208
SWIDTH 742 0
DWIDTH 6 0
BBX 6 6 0 0
BITMAP
78
44
44
E4
44
78
ENDCHAR

STARTCHAR Ntilde
ENCODING 209
SWIDTH 740 0
DWIDTH 6 0
BBX 5 7 0 0
BITMAP
70
88
C8
A8
A8
98
88
ENDCHAR

STARTCHAR Ograve
ENCODING 210
SWIDTH 840 0
DWIDTH 7 0
BBX 6 8 0 0
BITMAP
20
10
78
84
84
84
84
78
ENDCHAR

STARTCHAR Oacute
ENCODING 211
SWIDTH 840 0
DWIDTH 7 0
BBX 6 8 0 0
BITMAP
10
20
78
84
84
84
84
78
ENDCHAR

STARTCHAR Ocircumflex
ENCODING 212
SWIDTH 840 0
DWIDTH 7 0
BBX 6 8 0 0
BITMAP
10
28
78
84
84
84
84
78
ENDCHAR

STARTCHAR Otilde
ENCODING 213
SWIDTH 840 0
DWIDTH 7 0
BBX 6 7 0 0
BITMAP
38
78
84
84
84
84
78
ENDCHAR

STARTCHAR Odieresis
ENCODING 214
SWIDTH 840 0
DWIDTH 7 0
BBX 6 7 0 0
BITMAP
28
78
84
84
84
84
78
ENDCHAR

STARTCHAR multiply
ENCODING 215
SWIDTH 600 0
DWIDTH 5 0
BBX 4 3 1 1
BITMAP
B0
60
B0
ENDCHAR

STARTCHAR Oslash
ENCODING 216
SWIDTH 840 0
DWIDTH 7 0
BBX 6 6 0 0
BITMAP
7C
8C
94
A4
C4
F8
ENDCHAR

STARTCHAR Ugrave
ENCODING 217
SWIDTH 640 0
DWIDTH 5 0
BBX 4 8 1 0
BITMAP
40
20
90
90
90
90
90
60
ENDCHAR

STARTCHAR Uacute
ENCODING 218
SWIDTH 640 0
DWIDTH 5 0
BBX 4 8 1 0
BITMAP
20
40
90
90
90
90
90
60
ENDCHAR

STARTCHAR Ucircumflex
ENCODING 219
SWIDTH 640 0
DWIDTH 5 0
BBX 4 8 1 0
BITMAP
20
50
90
90
90
90
90
60
ENDCHAR

STARTCHAR Udieresis
ENCODING 220
SWIDTH 640 0
DWIDTH 5 0
BBX 4 7 1 0
BITMAP
A0
90
90
90
90
90
60
ENDCHAR

STARTCHAR Yacute
ENCODING 221
SWIDTH 620 0
DWIDTH 5 0
BBX 5 8 0 0
BITMAP
20
40
88
50
50
20
20
20
ENDCHAR

STARTCHAR Thorn
ENCODING 222
SWIDTH 560 0
DWIDTH 4 0
BBX 4 6 0 0
BITMAP
80
F0
90
F0
80
80
ENDCHAR

STARTCHAR germandbls
ENCODING 223
SWIDTH 600 0
DWIDTH 5 0
BBX 4 6 1 0
BITMAP
C0
A0
E0
90
D0
A0
ENDCHAR

STARTCHAR agrave
ENCODING 224
SWIDTH 660 0
DWIDTH 5 0
BBX 5 6 0 0
BITMAP
20
10
78
88
88
78
ENDCHAR

STARTCHAR aacute
ENCODING 225
SWIDTH 660 0
DWIDTH 5 0
BBX 5 6 0 0
BITMAP
10
20
78
88
88
78
ENDCHAR

STARTCHAR acircumflex
ENCODING 226
SWIDTH 660 0
DWIDTH 5 0
BBX 5 6 0 0
BITMAP
20
50
78
88
88
78
ENDCHAR

STARTCHAR atilde
ENCODING 227
SWIDTH 660 0
DWIDTH 5 0
BBX 5 5 0 0
BITMAP
70
78
88
88
78
ENDCHAR

STARTCHAR adieresis
ENCODING 228
SWIDTH 660 0
DWIDTH 5 0
BBX 5 5 0 0
BITMAP
50
78
88
88
78
ENDCHAR

STARTCHAR aring
ENCODING 229
SWIDTH 660 0
DWIDTH 5 0
BBX 5 5 0 0
BITMAP
50
78
88
88
78
ENDCHAR

STARTCHAR ae
ENCODING 230
SWIDTH 1080 0
DWIDTH 9 0
BBX 8 4 0 0
BITMAP
7E
8F
88
7F
ENDCHAR

STARTCHAR ccedilla
ENCODING 231
SWIDTH 640 0
DWIDTH 5 0
BBX 4 6 1 -2
BITMAP
60
90
90
60
20
60
ENDCHAR

STARTCHAR egrave
ENCODING 232
SWIDTH 640 0
DWIDTH 5 0
BBX 4 6 1 0
BITMAP
40
20
60
F0
80
70
ENDCHAR

STARTCHAR eacute
ENCODING 233
SWIDTH 640 0
DWIDTH 5 0
BBX 4 6 1 0
BITMAP
20
40
60
F0
80
70
ENDCHAR

STARTCHAR ecircumflex
ENCODING 234
SWIDTH 640 0
DWIDTH 5 0
BBX 4 6 1 0
BITMAP
20
50
60
F0
80
70
ENDCHAR

STARTCHAR edieresis
ENCODING 235
SWIDTH 640 0
DWIDTH 5 0
BBX 4 5 1 0
BITMAP
A0
60
F0
80
70
ENDCHAR

STARTCHAR igrave
ENCODING 236
SWIDTH 240 0
DWIDTH 2 0
BBX 2 6 0 0
BITMAP
80
40
80
80
80
80
ENDCHAR

STARTCHAR iacute
ENCODING 237
SWIDTH 240 0
DWIDTH 2 0
BBX 2 6 0 0
BITMAP
40
80
80
80
80
80
ENDCHAR

STARTCHAR icircumflex
ENCODING 238
SWIDTH 240 0
DWIDTH 2 0
BBX 3 6 1 0
BITMAP
40
A0
40
40
40
40
ENDCHAR

STARTCHAR idieresis
ENCODING 239
SWIDTH 240 0
DWIDTH 2 0
BBX 3 5 1 0
BITMAP
A0
40
40
40
40
ENDCHAR

STARTCHAR eth
ENCODING 240
SWIDTH 640 0
DWIDTH 5 0
BBX 5 6 0 0
BITMAP
70
30
78
88
88
70
ENDCHAR

STARTCHAR ntilde
ENCODING 241
SWIDTH 600 0
DWIDTH 5 0
BBX 4 5 0 0
BITMAP
70
F0
90
90
90
ENDCHAR

STARTCHAR ograve
ENCODING 242
SWIDTH 640 0
DWIDTH 5 0
BBX 5 6 0 0
BITMAP
40
20
70
88
88
70
ENDCHAR

STARTCHAR oacute
ENCODING 243
SWIDTH 640 0
DWIDTH 5 0
BBX 5 6 0 0
BITMAP
20
40
70
88
88
70
ENDCHAR

STARTCHAR ocircumflex
ENCODING 244
SWIDTH 640 0
DWIDTH 5 0
BBX 5 6 0 0
BITMAP
20
50
70
88
88
70
ENDCHAR

STARTCHAR otilde
ENCODING 245
SWIDTH 640 0
DWIDTH 5 0
BBX 5 5 0 0
BITMAP
70
70
88
88
70
ENDCHAR

STARTCHAR odieresis
ENCODING 246
SWIDTH 640 0
DWIDTH 5 0
BBX 5 5 0 0
BITMAP
50
70
88
88
70
ENDCHAR

STARTCHAR divide
ENCODING 247
SWIDTH 600 0
DWIDTH 5 0
BBX 3 3 1 1
BITMAP
40
E0
40
ENDCHAR

STARTCHAR oslash
ENCODING 248
SWIDTH 660 0
DWIDTH 5 0
BBX 5 5 0 0
BITMAP
08
70
B8
A8
70
ENDCHAR

STARTCHAR ugrave
ENCODING 249
SWIDTH 600 0
DWIDTH 5 0
BBX 4 6 0 0
BITMAP
40
20
90
90
90
F0
ENDCHAR

STARTCHAR uacute
ENCODING 250
SWIDTH 600 0
DWIDTH 5 0
BBX 4 6 0 0
BITMAP
20
40
90
90
90
F0
ENDCHAR

STARTCHAR ucircumflex
ENCODING 251
SWIDTH 600 0
DWIDTH 5 0
BBX 4 6 0 0
BITMAP
20
50
90
90
90
F0
ENDCHAR

STARTCHAR udieresis
ENCODING 252
SWIDTH 600 0
DWIDTH 5 0
BBX 4 5 0 0
BITMAP
A0
90
90
90
F0
ENDCHAR

STARTCHAR yacute
ENCODING 253
SWIDTH 580 0
DWIDTH 5 0
BBX 4 8 0 -2
BITMAP
20
40
90
50
60
40
40
40
ENDCHAR

STARTCHAR thorn
ENCODING 254
SWIDTH 660 0
DWIDTH 5 0
BBX 5 8 0 -2
BITMAP
80
80
F0
88
88
F0
80
80
ENDCHAR

STARTCHAR ydieresis
ENCODING 255
SWIDTH 580 0
DWIDTH 5 0
BBX 4 7 0 -2
BITMAP
50
90
50
60
40
40
40
ENDCHAR
ENDFONT
